<svg width="74" height="46" viewBox="0 0 74 46" fill="none" xmlns="http://www.w3.org/2000/svg">
<path d="M20.1538 37.666C9.90969 39.5407 2.56005 39.1449 1.48749 36.1361C-0.203312 31.3931 14.3452 21.9528 33.9825 15.0506C53.6198 8.1484 70.9096 6.39807 72.6004 11.1411C73.6795 14.1683 68.1435 19.109 58.8915 24.082" stroke="#1D4ED7" stroke-width="2"/>
<ellipse cx="36.4646" cy="22.8595" rx="22.9368" ry="22.7755" fill="#1D4ED7"/>
<path fill-rule="evenodd" clip-rule="evenodd" d="M25.7606 15.912C25.7606 14.9972 26.5074 14.2556 27.4287 14.2556H45.7781C46.6994 14.2556 47.4463 14.9972 47.4463 15.912V30.8196C47.4463 31.7344 46.6994 32.476 45.7781 32.476H27.4287C26.5074 32.476 25.7606 31.7344 25.7606 30.8196V15.912ZM45.7781 15.912H27.4287V30.8196H45.7781V15.912Z" fill="#EDECEE"/>
<path fill-rule="evenodd" clip-rule="evenodd" d="M25.7606 18.3966C25.7606 17.9392 26.134 17.5684 26.5946 17.5684H46.6122C47.0728 17.5684 47.4463 17.9392 47.4463 18.3966C47.4463 18.854 47.0728 19.2248 46.6122 19.2248H26.5946C26.134 19.2248 25.7606 18.854 25.7606 18.3966Z" fill="#EDECEE"/>
<path fill-rule="evenodd" clip-rule="evenodd" d="M32.4331 20.8811C32.8937 20.8811 33.2671 21.2519 33.2671 21.7093C33.2671 22.5879 33.6186 23.4305 34.2443 24.0518C34.87 24.6731 35.7186 25.0221 36.6034 25.0221C37.4882 25.0221 38.3368 24.6731 38.9625 24.0518C39.5882 23.4305 39.9396 22.5879 39.9396 21.7093C39.9396 21.2519 40.3131 20.8811 40.7737 20.8811C41.2344 20.8811 41.6078 21.2519 41.6078 21.7093C41.6078 23.0272 41.0805 24.2912 40.142 25.2231C39.2035 26.155 37.9306 26.6785 36.6034 26.6785C35.2761 26.6785 34.0033 26.155 33.0648 25.2231C32.1262 24.2912 31.599 23.0272 31.599 21.7093C31.599 21.2519 31.9724 20.8811 32.4331 20.8811Z" fill="#EDECEE"/>
<path d="M20.1537 37.666C21.882 37.3497 23.6928 36.9688 25.5697 36.5249M58.8914 24.082C57.1479 25.0191 55.2725 25.9573 53.2846 26.8841" stroke="#F7F7F8" stroke-width="2"/>
</svg>
